PathFileType	4	(X/Y/Z)	RBDS025\RBDS025runT45.trc
DataRate	CameraRate	NumFrames	NumMarkers	Units	OrigDataRate	OrigDataStartFrame	OrigNumFrames
150.000000	150.000000	6	33	mm	150.000000	3375	4500
Frame#	Time	L.ASIS			L.Heel.Bottom			L.Heel.Lateral			L.Heel.Top			L.Iliac.Crest			L.MT1			L.MT5			L.PSIS			L.Shank.Bottom.Lateral			L.Shank.Bottom.Medial			L.Shank.Top.Lateral			L.Shank.Top.Medial			L.Thigh.Bottom.Lateral			L.Thigh.Bottom.Medial			L.Thigh.Top.Lateral			L.Thigh.Top.Medial			R.ASIS			R.ASY			R.Heel.Bottom			R.Heel.Lateral			R.Heel.Top			R.Iliac.Crest			R.MT1			R.MT5			R.PSIS			R.Shank.Bottom.Lateral			R.Shank.Bottom.Medial			R.Shank.Top.Lateral			R.Shank.Top.Medial			R.Thigh.Bottom.Lateral			R.Thigh.Bottom.Medial			R.Thigh.Top.Lateral			R.Thigh.Top.Medial			
		X1	Y1	Z1	X2	Y2	Z2	X3	Y3	Z3	X4	Y4	Z4	X5	Y5	Z5	X6	Y6	Z6	X7	Y7	Z7	X8	Y8	Z8	X9	Y9	Z9	X10	Y10	Z10	X11	Y11	Z11	X12	Y12	Z12	X13	Y13	Z13	X14	Y14	Z14	X15	Y15	Z15	X16	Y16	Z16	X17	Y17	Z17	X18	Y18	Z18	X19	Y19	Z19	X20	Y20	Z20	X21	Y21	Z21	X22	Y22	Z22	X23	Y23	Z23	X24	Y24	Z24	X25	Y25	Z25	X26	Y26	Z26	X27	Y27	Z27	X28	Y28	Z28	X29	Y29	Z29	X30	Y30	Z30	X31	Y31	Z31	X32	Y32	Z32	X33	Y33	Z33	

3376	22.5	2062.18030664141	878.613691419745	864.1901788943146	1796.249778824913	41.81604733582395	974.3265297776265	1819.169755700417	65.14992142031555	929.344062109477	1812.827469814237	83.79875224993778	978.6371018027453	1978.637927267294	949.8797586377328	817.8961132289937	2010.04876869191	33.54146013158127	976.6114420888593	1960.966842806426	44.76717069702849	872.1359106911203	1909.480739149707	947.385322285208	931.4813216212092	1933.522641852088	158.9262744156943	904.5499456716262	1888.945434957415	188.3936857049344	921.6200509895331	1966.979806736753	227.457717776568	877.6041186107215	1923.497185724442	256.2992217900597	892.5584201552872	2045.581760428221	539.832179360712	818.7235674814501	1987.837286398314	521.2471119502634	858.0743848913349	2003.024134024913	638.6224133892842	802.5011910861327	1949.133364740361	622.6054109713515	843.0863560131688	2084.906091586565	863.9391138163406	1061.714990505959	1632.428518057718	323.1974245983561	1056.738969975551	1627.466244187492	508.8882394656229	1009.260417611131	1642.839315208204	486.5103167690086	1055.967200897815	1668.21554696997	489.2791932268029	1013.121409666762	2040.009073339067	927.8966868147593	1111.807279081105	1586.711769583565	298.3151215256316	1014.448553303812	1586.475463264298	349.5372025095363	1114.774063052382	1923.90936147961	936.3635644017869	1032.988825064359	1766.35061469282	433.3906593924614	1086.500588883084	1770.091008149594	469.9103372143787	1050.210254074805	1850.84747191577	436.6860692701865	1095.46603876318	1850.38159303467	475.5254820922887	1059.355568806421	2046.162627657469	501.8443132919257	1126.272556102853	1986.125254424374	489.2617386498934	1090.080065577106	2014.419974877202	606.7878867604037	1141.946621728516	1955.432127918491	593.1685034572218	1110.208149753726	
3377	22.50666666666667	2060.82221575209	879.6321102686525	863.7711881623977	1766.183029006878	45.1921794408091	974.0849220774866	1789.458896986226	67.87707802342608	928.8973861912443	1783.049491469928	87.092950201601	977.9538766893671	1977.611967451774	951.7679967115469	817.2479780581025	1979.225365800465	33.86273884075023	976.5715387853988	1930.818579963695	44.98736570670291	872.0401369227457	1908.808285651432	949.9657923954438	930.5000729760475	1906.132739108202	160.5032263378854	904.4192392858071	1862.335270884435	191.1793613716996	921.2808077634413	1941.611842520891	228.0279188187147	877.8193530640958	1898.854519342476	258.0575095362832	892.460837397138	2031.972352724254	538.3036725966267	819.7129255504611	1972.735410795221	522.1748810304902	858.0236094095116	1993.748298644517	638.933304575938	803.089405905857	1938.760596211146	625.1967936977175	843.0822914629399	2083.533071194317	867.1630558536655	1061.751796436085	1658.099004501429	309.9664690047715	1055.341180950072	1641.481834041385	495.6890769819879	1010.841027981072	1658.608154376605	473.5394667146971	1057.129728432333	1683.37271412532	478.4506176671293	1014.018140458989	2036.455248602755	930.7944318946993	1111.887755608261	1613.560573603671	283.0601509233442	1013.106241925242	1611.166847368851	332.5038652416999	1114.213777381932	1922.534148691831	939.1764819071308	1032.052729797666	1785.482769581331	426.5885969213584	1086.04133872364	1787.385434946434	463.5085613366516	1050.133028166443	1869.604572346755	433.8512376266926	1095.165447473545	1867.298967506823	472.722581594375	1059.101497300799	2061.75372787602	508.4777261969106	1126.14189060244	2002.326928898829	492.4760890649505	1090.181001300613	2024.398170123487	611.6731492978322	1141.547524119629	1965.883385941917	594.4924985400879	1110.560517368982	
3378	22.51333333333334	2059.783319076819	881.018837086084	863.4030910897371	1736.218643999903	49.53563283174805	973.8246314328317	1759.929455064353	71.28719901844643	928.3852844939603	1753.616839744268	91.2845604403927	977.1428385624095	1977.333512315891	954.2985958658552	816.7854258306841	1948.342558804622	33.92952442118877	976.5682719689172	1900.6511121306	44.98719273528882	871.8751304185905	1908.494879537616	952.9529682243775	929.595149319995	1878.695461439292	162.7626064748402	904.0141679319171	1835.678444738503	194.4852629049463	920.8456113177466	1915.929739613561	229.3568388179777	877.7410287721607	1873.863121918247	260.4267535545342	892.2124261828243	2017.940559194828	537.6056065695989	820.5404485609251	1957.245427493571	524.0592676864617	857.7315336971815	1984.311808787461	639.9566182173234	803.6140136790871	1928.242750217795	628.6342547411482	842.9381372651953	2082.503425234688	870.9590156596153	1061.803707702114	1684.526507974783	295.9115935316746	1054.015964846986	1655.170213921524	480.642130599031	1011.990977104369	1674.00204688208	459.0604655652768	1057.918376564461	1698.122030283229	466.157011915712	1014.63702213713	2033.401810610074	934.269617380499	1111.987872312669	1641.602198956346	266.648504885443	1011.785111335065	1636.488867337661	314.3997209817556	1113.448631164012	1921.52959627209	942.5268310334873	1031.220694237999	1804.204675762905	419.3978313823992	1085.473807512838	1803.990748955745	456.6074431512778	1049.913752114821	1887.682970101077	431.2456624711241	1094.742731194273	1883.251076473472	470.0212472374653	1058.716511698662	2076.602455708349	516.6171335023415	1125.855431179843	2018.043916211072	497.3929639496685	1089.933162062737	2033.89254751564	617.8050260528316	1141.096558859316	1976.09365628256	597.2525522992988	1110.611614434966	
3379	22.52	2059.090379174775	882.747932108056	863.0813290978983	1706.542084883937	54.99567366722358	973.5389941653245	1730.7389391936	75.50447963897547	927.8008713144504	1724.736609942485	96.47656656484138	976.1927517322899	1977.82026231265	957.3826917686586	816.5322767120078	1917.453436815151	33.79913634650364	976.5816691816168	1870.498590150117	44.84757076713487	871.6325858450277	1908.552552300019	956.2740350734703	928.8153113056205	1851.394031742151	165.8131428733942	903.2868317258074	1809.165159199913	198.4170824476539	920.3046509670172	1890.128828803292	231.5854783674284	877.3220802642389	1848.725741148669	263.5444654080331	891.8036996220839	2003.649938584515	537.8352994953143	821.1380402093085	1941.612257554602	526.9836699770469	857.2098625009588	1974.824383126845	641.7334295042779	804.0343393506026	1917.747249870817	632.93962261687	842.6646766587837	2081.857924692114	875.2669801185705	1061.819276455799	1711.75680296529	281.2718075280925	1052.80106003278	1668.810135514474	463.7453093292771	1012.602780069889	1689.267344678213	443.1078126271241	1058.241838501519	1712.676145171701	452.3762211912589	1014.87827380238	2030.997523774566	938.3126021925214	1112.097396664599	1670.917135159444	249.384998669517	1010.54906802389	1662.588156245918	295.5231942878033	1112.522224852454	1920.925194523658	946.3684293381534	1030.543649854933	1822.557837762557	411.8196644603051	1084.76497976858	1819.998636275921	449.1448838532102	1049.488731193807	1905.051287428244	428.768983812961	1094.151816904928	1898.256398017214	467.2711118652637	1058.146041602177	2090.52550353222	526.0140459830743	1125.427397708094	2033.033302160255	503.8322425267461	1089.373549421826	2042.81158637076	624.9881388900652	1140.648686957225	1985.925716314196	601.3405729437408	1110.394190465091	
3380	22.52666666666667	2058.769483789117	884.7829570818558	862.8188390766067	1677.386667577752	61.68368717308815	973.2075348875356	1702.082565768543	80.62573267007232	927.1258076427929	1696.645467723712	102.7302397745057	975.0808525301117	1979.076685557776	960.9213378310578	816.4898544875483	1886.642240231584	33.55776563789638	976.5707315698377	1840.417640482027	44.66281565570124	871.2979476922155	1908.990622846798	959.8581451190676	928.1806101808921	1824.410959833174	169.7370142108374	902.1807629250019	1782.988976020767	203.0448036402324	919.6423374251254	1864.391577469424	234.8257522298372	876.5153301682558	1823.640415462318	267.5100327347413	891.2326231949334	1989.240754367355	539.0689051471896	821.4485870959126	1926.042184765099	531.0113823056084	856.4677955884805	1965.382486025385	644.2951684220899	804.3121494481837	1907.420205232707	638.1252383043671	842.2696045177946	2081.614804440315	880.0281698604093	1061.769727698485	1739.842963394815	266.2811825861416	1051.721602342423	1682.716805274757	445.0432147950164	1012.613357364716	1704.683747172859	425.7395074997937	1058.047830156535	1727.287653810326	437.1204354568773	1014.673349233161	2029.345562349302	942.9291573393745	1112.210862783852	1701.587887838739	231.5876755365585	1009.4525087987	1689.620057394528	276.1564843767409	1111.487051729443	1920.733647477107	950.6520044286191	1030.044754498271	1840.625394918678	403.8424496286832	1083.888714431313	1835.547155306418	441.0547380509456	1048.808703580551	1921.723187857607	426.2971357369303	1093.358773733773	1912.385691906634	464.3030051757535	1057.347058635763	2103.388745294401	536.3771438425508	1124.869130167591	2047.089366218017	511.5574986167426	1088.544793948736	2051.095930086578	632.9984146300037	1140.24870119762	1995.265369655934	606.6064763188714	1109.949429895195	
3381	22.53333333333333	2058.841699177948	887.0731108186292	862.6445900344221	1649.016431992475	69.66731180291652	972.7938192537493	1674.18119713648	86.71795147574981	926.3300059895337	1669.594897214395	110.0636975542352	973.774524621879	1981.100822260048	964.8026763693692	816.6383325254412	1856.023924028917	33.30771926978786	976.4788551972583	1810.487587543387	44.5354048018032	870.852505974263	1909.813118998869	963.6355450018556	927.6822673384482	1797.925217731677	174.5821421346137	900.6410346751381	1757.339042964579	208.397595752763	918.8387210360848	1838.88807641064	239.1516391706279	875.2819070708974	1798.795920051307	272.3784583605534	890.5047709434764	1974.824022938892	541.3598155607542	821.4335015522928	1910.694523098926	536.1830568374273	855.5167780617327	1956.063522428569	647.6621309618062	804.4175141905687	1897.379888628634	644.1922876274512	841.7623261998014	2081.770139249032	885.1815516337882	1061.652953905445	1768.83987625392	251.1655196384365	1050.789488466331	1697.224095718939	424.6324167215993	1012.003807131486	1720.54649880803	407.0431727706604	1057.322544342853	1742.233656203533	420.4422467032602	1013.986851169854	2028.497095311853	948.1244892985828	1112.327319237577	1733.688576528621	213.5782865794147	1008.536879660262	1717.734069658616	256.5645336564281	1110.398137760041	1920.95006891863	955.3190694287622	1029.718599599461	1858.52565024786	395.4474258541757	1082.829121436057	1850.811041219491	432.2773118542069	1047.84476199949	1937.756028670318	423.6931363849827	1092.346292510442	1925.757267286964	460.9441459814906	1056.294784915274	2115.109055387106	547.3896461261546	1124.187442061105	2060.051897834947	520.2886575590544	1087.492521672802	2058.716304651851	641.5960593678284	1139.924519810405	2004.024352340686	612.8648380331348	1109.322759719285	
